<svg xmlns="http://www.w3.org/2000/svg" width="173.24" height="85.24" viewBox="0 0 173.24 85.24">
  <defs>
    <style>
      .cls-1 {
        fill: #231f20;
      }
    </style>
  </defs>
  <g id="Layer_2" data-name="Layer 2">
    <g id="Layer_1-2" data-name="Layer 1">
      <g>
        <g>
          <path class="cls-1" d="M5.3,26.44h-1Q0,26.44,0,22.15V20.2q0-4.29,4.29-4.29h1V14.66A13.23,13.23,0,0,1,7.33,7a14,14,0,0,1,4.8-4.44,18.15,18.15,0,0,1,5.62-2A26.7,26.7,0,0,1,22.15,0h1.33q4.29,0,4.29,4.29V7.18a4.1,4.1,0,0,1-1.09,3.12,5.22,5.22,0,0,1-3.2,1.17L22,11.66a4.46,4.46,0,0,0-1.53.51,3.43,3.43,0,0,0-1.2,1.17,3.64,3.64,0,0,0-.51,2v.54H40.17q4.29,0,4.29,4.29V51.79q0,4.29-4.29,4.29H35.26Q31,56.08,31,51.79V26.44H18.8V51.79q0,4.29-4.29,4.29H9.59q-4.29,0-4.29-4.29Zm30.11-15.6q-4.29,0-4.29-4.29V4.6q0-4.29,4.29-4.29H40Q44.3.31,44.3,4.6v2q0,4.29-4.29,4.29Z"/>
          <path class="cls-1" d="M52.26,4.6q0-4.29,4.29-4.29h4.91q4.29,0,4.29,4.29v36a4.87,4.87,0,0,0,.67,3,2.64,2.64,0,0,0,1.6.94,3.67,3.67,0,0,1,2.26,1,3.62,3.62,0,0,1,.86,2.65V52.1a4.69,4.69,0,0,1-1,3.2,4.21,4.21,0,0,1-3.35,1.17A28.62,28.62,0,0,1,61.58,56a10.64,10.64,0,0,1-4.68-2.06,11.18,11.18,0,0,1-3.35-4.61,20.8,20.8,0,0,1-1.29-8.07Z"/>
          <path class="cls-1" d="M76.36,20.2q0-4.29,4.29-4.29H85q4.22,0,4.21,4.29v.7a1.17,1.17,0,0,1,0,.32,1.55,1.55,0,0,0,0,.31v.39h.16c.47-.68,1-1.43,1.75-2.26a12.7,12.7,0,0,1,2.54-2.27A15.81,15.81,0,0,1,97,15.68a12.22,12.22,0,0,1,4.25-.7A13.41,13.41,0,0,1,108,16.65a10.84,10.84,0,0,1,4.48,5.11h.16a12.31,12.31,0,0,1,2.07-2.45,16.74,16.74,0,0,1,2.92-2.19,15.65,15.65,0,0,1,3.63-1.56A15,15,0,0,1,125.5,15a16.33,16.33,0,0,1,5.11.78,10,10,0,0,1,4.13,2.57A12.49,12.49,0,0,1,137.51,23a21.16,21.16,0,0,1,1,7V51.79q0,4.29-4.29,4.29h-4.92q-4.29,0-4.29-4.29V32.29a9.6,9.6,0,0,0-.58-3.66,2.45,2.45,0,0,0-2.54-1.41,6.29,6.29,0,0,0-3.66,1,7.42,7.42,0,0,0-2.38,2.65,12.38,12.38,0,0,0-1.29,3.78,24.61,24.61,0,0,0-.39,4.41V51.79q0,4.29-4.29,4.29H105q-4.29,0-4.29-4.29V32.29a9.59,9.59,0,0,0-.59-3.66,2.44,2.44,0,0,0-2.53-1.41,6.36,6.36,0,0,0-3.83,1.09,7.93,7.93,0,0,0-2.33,2.77,12.58,12.58,0,0,0-1.21,3.79,24.84,24.84,0,0,0-.36,4.21V51.79q0,4.29-4.29,4.29H80.65q-4.29,0-4.29-4.29Z"/>
          <path class="cls-1" d="M145.94,20.2q0-4.29,4.29-4.29h4.37q4.28,0,4.28,4.29v2.5q0,.54,0,.93a6.91,6.91,0,0,0,0,.78,3.44,3.44,0,0,0-.08.78h.15a16.28,16.28,0,0,1,3.91-6.39,12.91,12.91,0,0,1,3.15-2.34,7.56,7.56,0,0,1,3.63-.94,3.38,3.38,0,0,1,2.85,1.09,5.34,5.34,0,0,1,.82,3.2v4.37q0,4.29-4.29,4.29a8.43,8.43,0,0,0-7.18,3.59A11.65,11.65,0,0,0,160,35.88a17.73,17.73,0,0,0-.59,4.6V51.79q0,4.29-4.29,4.29h-4.91q-4.29,0-4.29-4.29Z"/>
        </g>
        <g>
          <path class="cls-1" d="M.78,64.4a1.51,1.51,0,0,1,1.7-1.7H10a7.59,7.59,0,0,1,2.94.56,6.44,6.44,0,0,1,2.28,1.58,7.31,7.31,0,0,1,1.47,2.42,8.64,8.64,0,0,1,.53,3.07,8.78,8.78,0,0,1-.53,3.08,7.25,7.25,0,0,1-1.47,2.43,6.49,6.49,0,0,1-2.28,1.6A7.41,7.41,0,0,1,10,78H6.2v5.15a1.5,1.5,0,0,1-1.7,1.7h-2a1.5,1.5,0,0,1-1.7-1.7Zm8.09,9A2.56,2.56,0,0,0,11,72.51a3.76,3.76,0,0,0,0-4.34,2.51,2.51,0,0,0-2-.82H6.2v6Z"/>
          <path class="cls-1" d="M19.88,64.4a1.5,1.5,0,0,1,1.7-1.7h6a22.33,22.33,0,0,1,2.65.12,7.2,7.2,0,0,1,1.66.41,6,6,0,0,1,3,2.37A7.13,7.13,0,0,1,36,69.67a7.74,7.74,0,0,1-.2,1.79,7.09,7.09,0,0,1-.62,1.7,6.22,6.22,0,0,1-1,1.49,4.83,4.83,0,0,1-1.45,1.07v.06l.22.31a2.4,2.4,0,0,1,.26.42c.09.18.21.38.35.6l3.17,5.71a1.4,1.4,0,0,1,.17,1.47,1.47,1.47,0,0,1-1.35.57H33.14a2.17,2.17,0,0,1-2-1.2l-3.29-6.27H25.3v5.77a1.5,1.5,0,0,1-1.71,1.7h-2a1.5,1.5,0,0,1-1.7-1.7Zm7.78,8.34a3,3,0,0,0,2.06-.69,2.66,2.66,0,0,0,.76-2,3.57,3.57,0,0,0-.27-1.45,1.77,1.77,0,0,0-1-.91,5.19,5.19,0,0,0-2-.31H25.3v5.39Z"/>
          <path class="cls-1" d="M38.35,73.64a11.71,11.71,0,0,1,.84-4.45,10.72,10.72,0,0,1,6-6,13.21,13.21,0,0,1,9.43,0,10.72,10.72,0,0,1,6,6,11.71,11.71,0,0,1,.84,4.45,12.24,12.24,0,0,1-.84,4.56,10.93,10.93,0,0,1-6,6.14,12.8,12.8,0,0,1-9.43,0,10.93,10.93,0,0,1-6-6.14A12.24,12.24,0,0,1,38.35,73.64Zm5.61,0a7.54,7.54,0,0,0,.45,2.64,6.51,6.51,0,0,0,1.24,2.09,5.8,5.8,0,0,0,1.89,1.39,5.82,5.82,0,0,0,4.81,0,5.8,5.8,0,0,0,1.89-1.39,6.51,6.51,0,0,0,1.24-2.09,7.54,7.54,0,0,0,.45-2.64,6.88,6.88,0,0,0-.45-2.52,6.18,6.18,0,0,0-1.24-2,5.63,5.63,0,0,0-1.89-1.33,6.27,6.27,0,0,0-4.81,0,5.63,5.63,0,0,0-1.89,1.33,6.18,6.18,0,0,0-1.24,2A6.88,6.88,0,0,0,44,73.64Z"/>
          <path class="cls-1" d="M77.19,67.35h-5a1.51,1.51,0,0,1-1.7-1.71V64.4a1.51,1.51,0,0,1,1.7-1.7H87.64a1.51,1.51,0,0,1,1.71,1.7v1.24a1.51,1.51,0,0,1-1.71,1.71h-5V83.16a1.5,1.5,0,0,1-1.71,1.7h-2a1.5,1.5,0,0,1-1.71-1.7Z"/>
          <path class="cls-1" d="M89.84,73.64a11.71,11.71,0,0,1,.84-4.45,10.72,10.72,0,0,1,6-6,13.21,13.21,0,0,1,9.43,0,10.72,10.72,0,0,1,6,6,11.71,11.71,0,0,1,.84,4.45,12.24,12.24,0,0,1-.84,4.56,10.93,10.93,0,0,1-6,6.14,12.8,12.8,0,0,1-9.43,0,10.93,10.93,0,0,1-6-6.14A12.24,12.24,0,0,1,89.84,73.64Zm5.61,0a7.54,7.54,0,0,0,.45,2.64,6.7,6.7,0,0,0,1.24,2.09A5.8,5.8,0,0,0,99,79.76a5.82,5.82,0,0,0,4.81,0,5.8,5.8,0,0,0,1.89-1.39A6.51,6.51,0,0,0,107,76.28a7.54,7.54,0,0,0,.45-2.64,6.88,6.88,0,0,0-.45-2.52,6.18,6.18,0,0,0-1.24-2,5.63,5.63,0,0,0-1.89-1.33,6.27,6.27,0,0,0-4.81,0,5.63,5.63,0,0,0-1.89,1.33,6.35,6.35,0,0,0-1.24,2A6.88,6.88,0,0,0,95.45,73.64Z"/>
          <path class="cls-1" d="M115,73.64a11.71,11.71,0,0,1,.84-4.45,10.69,10.69,0,0,1,6.05-6,13.18,13.18,0,0,1,9.42,0,10.77,10.77,0,0,1,6.05,6,11.9,11.9,0,0,1,.83,4.45,12.44,12.44,0,0,1-.83,4.56,11,11,0,0,1-6.05,6.14,12.77,12.77,0,0,1-9.42,0,10.91,10.91,0,0,1-6.05-6.14A12.24,12.24,0,0,1,115,73.64Zm5.61,0a7.55,7.55,0,0,0,.46,2.64,6.33,6.33,0,0,0,1.24,2.09,5.59,5.59,0,0,0,1.89,1.39,5.8,5.8,0,0,0,4.8,0,5.69,5.69,0,0,0,1.89-1.39,6.51,6.51,0,0,0,1.24-2.09,7.54,7.54,0,0,0,.45-2.64,6.88,6.88,0,0,0-.45-2.52,6.18,6.18,0,0,0-1.24-2A5.53,5.53,0,0,0,129,67.77a6.24,6.24,0,0,0-4.8,0,5.44,5.44,0,0,0-1.89,1.33,6,6,0,0,0-1.24,2A6.89,6.89,0,0,0,120.62,73.64Z"/>
          <path class="cls-1" d="M141.33,64.4A1.51,1.51,0,0,1,143,62.7h2a1.51,1.51,0,0,1,1.71,1.7V80.21h7.35a1.51,1.51,0,0,1,1.7,1.71v1.24a1.5,1.5,0,0,1-1.7,1.7H143a1.5,1.5,0,0,1-1.71-1.7Z"/>
          <path class="cls-1" d="M157.64,83a2.94,2.94,0,0,1-.44-.42,1.46,1.46,0,0,1-.26-.53,1.38,1.38,0,0,1,0-.64,2.23,2.23,0,0,1,.39-.77l1-1.4a1.6,1.6,0,0,1,1-.76,2.24,2.24,0,0,1,1.34.36l.66.37a9.41,9.41,0,0,0,.9.45,6,6,0,0,0,1.13.39,5.72,5.72,0,0,0,1.34.16,2.88,2.88,0,0,0,1.78-.45,1.36,1.36,0,0,0,.57-1.1,1.59,1.59,0,0,0-.73-1.32,10,10,0,0,0-1.81-1l-2.36-1A11.38,11.38,0,0,1,159.78,74,7,7,0,0,1,158,72a5.39,5.39,0,0,1-.72-2.89,6.36,6.36,0,0,1,.6-2.78,6.47,6.47,0,0,1,1.66-2.15A7.35,7.35,0,0,1,162,62.81a9.92,9.92,0,0,1,3.13-.48,11.24,11.24,0,0,1,3.57.54,9.88,9.88,0,0,1,2.41,1.1A1.7,1.7,0,0,1,171.9,65a2.08,2.08,0,0,1-.25,1.26l-.74,1.45c-.31.6-.67.91-1.07.92a2.55,2.55,0,0,1-1.26-.33c-.52-.25-1.05-.48-1.6-.7a5.25,5.25,0,0,0-1.9-.32,3,3,0,0,0-1.86.45,1.36,1.36,0,0,0-.56,1.1,1.57,1.57,0,0,0,.73,1.33,9.42,9.42,0,0,0,1.81,1c.73.31,1.51.64,2.36,1a10.53,10.53,0,0,1,2.35,1.3,7.06,7.06,0,0,1,1.82,2,5.45,5.45,0,0,1,.73,2.9A7,7,0,0,1,172,81a6.41,6.41,0,0,1-1.51,2.2A7.1,7.1,0,0,1,168,84.68a9.22,9.22,0,0,1-3.31.56,11.6,11.6,0,0,1-2.25-.22,16.34,16.34,0,0,1-2-.54,12.6,12.6,0,0,1-1.64-.72A8.25,8.25,0,0,1,157.64,83Z"/>
        </g>
      </g>
    </g>
  </g>
</svg>
