<?xml version="1.0" encoding="UTF-8"?>
<svg width="223px" height="73px" viewBox="0 0 223 73" version="1.1" xmlns="http://www.w3.org/2000/svg" xmlns:xlink="http://www.w3.org/1999/xlink">
    <title>ﬁlmr</title>
    <g id="Symbols" stroke="none" stroke-width="1" fill="none" fill-rule="evenodd">
        <g id="filmr-logo" transform="translate(-1.000000, -23.000000)" fill="#000000" fill-rule="nonzero">
            <path d="M20.4,95 C24.0666667,95 25.9,93.1666667 25.9,89.5 L25.9,89.5 L25.9,57 L41.5,57 L41.5,89.5 C41.5,93.1666667 43.3333333,95 47,95 L47,95 L53.3,95 C56.9666667,95 58.8,93.1666667 58.8,89.5 L58.8,89.5 L58.8,49 C58.8,45.3333333 56.9666667,43.5 53.3,43.5 L53.3,43.5 L25.9,43.5 L25.9,42.8 C25.9,41.7333333 26.1166667,40.8666667 26.55,40.2 C26.9833333,39.5333333 27.5,39.0333333 28.1,38.7 C28.7,38.3666667 29.35,38.15 30.05,38.05 C30.75,37.95 31.3666667,37.8666667 31.9,37.8 C33.7,37.6666667 35.0666667,37.1666667 36,36.3 C36.9333333,35.4333333 37.4,34.1 37.4,32.3 L37.4,32.3 L37.4,28.6 C37.4,24.9333333 35.5666667,23.1 31.9,23.1 L31.9,23.1 L30.2,23.1 C28.8666667,23.1 26.9833333,23.3166667 24.55,23.75 C22.1166667,24.1833333 19.7166667,25.05 17.35,26.35 C14.9833333,27.65 12.9333333,29.55 11.2,32.05 C9.46666667,34.55 8.6,37.8333333 8.6,41.9 L8.6,41.9 L8.6,43.5 L7.3,43.5 C3.63333333,43.5 1.8,45.3333333 1.8,49 L1.8,49 L1.8,51.5 C1.8,55.1666667 3.63333333,57 7.3,57 L7.3,57 L8.6,57 L8.6,89.5 C8.6,93.1666667 10.4333333,95 14.1,95 L14.1,95 L20.4,95 Z M53.1,37 C56.7666667,37 58.6,35.1666667 58.6,31.5 L58.6,31.5 L58.6,29 C58.6,25.3333333 56.7666667,23.5 53.1,23.5 L53.1,23.5 L47.2,23.5 C43.5333333,23.5 41.7,25.3333333 41.7,29 L41.7,29 L41.7,31.5 C41.7,35.1666667 43.5333333,37 47.2,37 L47.2,37 L53.1,37 Z M87.405,95.5 C89.405,95.5 90.8383333,95 91.705,94 C92.5716667,93 93.005,91.6333333 93.005,89.9 L93.005,89.9 L93.005,85 C93.005,83.4666667 92.6383333,82.3333333 91.905,81.6 C91.1716667,80.8666667 90.205,80.4333333 89.005,80.3 C88.205,80.1666667 87.5216667,79.7666667 86.955,79.1 C86.3883333,78.4333333 86.105,77.1333333 86.105,75.2 L86.105,75.2 L86.105,29 C86.105,25.3333333 84.2716667,23.5 80.605,23.5 L80.605,23.5 L74.305,23.5 C70.6383333,23.5 68.805,25.3333333 68.805,29 L68.805,29 L68.805,76 C68.805,80.3333333 69.355,83.7833333 70.455,86.35 C71.555,88.9166667 72.9883333,90.8833333 74.755,92.25 C76.5216667,93.6166667 78.5216667,94.5 80.755,94.9 C82.9883333,95.3 85.205,95.5 87.405,95.5 Z M111.51,95 C115.176667,95 117.01,93.1666667 117.01,89.5 L117.01,89.5 L117.01,73.2 C117.01,71.4 117.16,69.6 117.46,67.8 C117.76,66 118.276667,64.3833333 119.01,62.95 C119.743333,61.5166667 120.743333,60.3333333 122.01,59.4 C123.276667,58.4666667 124.91,58 126.91,58 C128.576667,58 129.66,58.6 130.16,59.8 C130.66,61 130.91,62.5666667 130.91,64.5 L130.91,64.5 L130.91,89.5 C130.91,93.1666667 132.743333,95 136.41,95 L136.41,95 L142.71,95 C146.376667,95 148.21,93.1666667 148.21,89.5 L148.21,89.5 L148.21,73.2 C148.21,71.2666667 148.376667,69.3833333 148.71,67.55 C149.043333,65.7166667 149.593333,64.1 150.36,62.7 C151.126667,61.3 152.143333,60.1666667 153.41,59.3 C154.676667,58.4333333 156.243333,58 158.11,58 C159.776667,58 160.86,58.6 161.36,59.8 C161.86,61 162.11,62.5666667 162.11,64.5 L162.11,64.5 L162.11,89.5 C162.11,93.1666667 163.943333,95 167.61,95 L167.61,95 L173.91,95 C177.576667,95 179.41,93.1666667 179.41,89.5 L179.41,89.5 L179.41,61.6 C179.41,58.0666667 178.976667,55.0666667 178.11,52.6 C177.243333,50.1333333 176.06,48.1333333 174.56,46.6 C173.06,45.0666667 171.293333,43.9666667 169.26,43.3 C167.226667,42.6333333 165.043333,42.3 162.71,42.3 C160.776667,42.3 158.96,42.55 157.26,43.05 C155.56,43.55 154.01,44.2166667 152.61,45.05 C151.21,45.8833333 149.96,46.8166667 148.86,47.85 C147.76,48.8833333 146.876667,49.9333333 146.21,51 L146.21,51 L146.01,51 C144.676667,48.0666667 142.76,45.8833333 140.26,44.45 C137.76,43.0166667 134.876667,42.3 131.61,42.3 C129.61,42.3 127.793333,42.6 126.16,43.2 C124.526667,43.8 123.076667,44.5333333 121.81,45.4 C120.543333,46.2666667 119.46,47.2333333 118.56,48.3 C117.66,49.3666667 116.91,50.3333333 116.31,51.2 L116.31,51.2 L116.11,51.2 L116.11,50.7 C116.11,50.5666667 116.126667,50.4333333 116.16,50.3 C116.193333,50.1666667 116.21,50.0333333 116.21,49.9 L116.21,49.9 L116.21,49 C116.21,45.3333333 114.41,43.5 110.81,43.5 L110.81,43.5 L105.21,43.5 C101.543333,43.5 99.71,45.3333333 99.71,49 L99.71,49 L99.71,89.5 C99.71,93.1666667 101.543333,95 105.21,95 L105.21,95 L111.51,95 Z M200.715,95 C204.381667,95 206.215,93.1666667 206.215,89.5 L206.215,89.5 L206.215,75 C206.215,72.9333333 206.465,70.9666667 206.965,69.1 C207.465,67.2333333 208.215,65.6 209.215,64.2 C210.215,62.8 211.481667,61.6833333 213.015,60.85 C214.548333,60.0166667 216.348333,59.6 218.415,59.6 C222.081667,59.6 223.915,57.7666667 223.915,54.1 L223.915,54.1 L223.915,48.5 C223.915,46.7 223.565,45.3333333 222.865,44.4 C222.165,43.4666667 220.948333,43 219.215,43 C217.615,43 216.065,43.4 214.565,44.2 C213.065,45 211.715,46 210.515,47.2 C209.315,48.4 208.281667,49.7333333 207.415,51.2 C206.548333,52.6666667 205.915,54.0666667 205.515,55.4 L205.515,55.4 L205.315,55.4 C205.315,55.0666667 205.348333,54.7333333 205.415,54.4 C205.415,54.0666667 205.431667,53.7333333 205.465,53.4 C205.498333,53.0666667 205.515,52.6666667 205.515,52.2 L205.515,52.2 L205.515,49 C205.515,45.3333333 203.681667,43.5 200.015,43.5 L200.015,43.5 L194.415,43.5 C190.748333,43.5 188.915,45.3333333 188.915,49 L188.915,49 L188.915,89.5 C188.915,93.1666667 190.748333,95 194.415,95 L194.415,95 L200.715,95 Z" id="ﬁlmr"></path>
        </g>
    </g>
</svg>